<svg width="25" height="25" viewBox="0 0 25 25" fill="none" xmlns="http://www.w3.org/2000/svg">
<path d="M19.319 24.5H5.60471C2.76928 24.5 0.461853 22.1926 0.461853 19.3571V5.64286C0.461853 2.80743 2.76928 0.5 5.60471 0.5H14.1761C14.6308 0.5 15.0668 0.680612 15.3883 1.0021C15.7098 1.32359 15.8904 1.75963 15.8904 2.21429C15.8904 2.66894 15.7098 3.10498 15.3883 3.42647C15.0668 3.74796 14.6308 3.92857 14.1761 3.92857H5.60471C4.65842 3.92857 3.89042 4.69829 3.89042 5.64286V19.3571C3.89042 20.3017 4.65842 21.0714 5.60471 21.0714H19.319C20.2653 21.0714 21.0333 20.3017 21.0333 19.3571V14.2143C21.0333 13.7596 21.2139 13.3236 21.5354 13.0021C21.8569 12.6806 22.2929 12.5 22.7476 12.5C23.2022 12.5 23.6383 12.6806 23.9598 13.0021C24.2812 13.3236 24.4619 13.7596 24.4619 14.2143V19.3571C24.4619 22.1926 22.1544 24.5 19.319 24.5ZM14.4607 17.3566C13.8607 17.3566 13.2796 17.1183 12.8476 16.6863L8.27385 12.1143C7.86245 11.6819 7.63642 11.1057 7.64401 10.5089C7.6516 9.91211 7.89222 9.34192 8.31448 8.9201C8.73675 8.49828 9.3072 8.25827 9.90402 8.25131C10.5008 8.24435 11.0767 8.471 11.5087 8.88286L13.9361 11.312L19.8933 1.96057C20.0341 1.68923 20.2278 1.44886 20.4631 1.25369C20.6984 1.05852 20.9704 0.912506 21.2631 0.824275C21.5558 0.736043 21.8632 0.707388 22.1672 0.740005C22.4711 0.772621 22.7654 0.865846 23.0327 1.01417C23.3 1.16249 23.5349 1.3629 23.7234 1.60355C23.9119 1.8442 24.0503 2.1202 24.1303 2.41524C24.2103 2.71028 24.2304 3.01836 24.1893 3.32128C24.1481 3.6242 24.0467 3.91581 23.891 4.17886L16.4613 16.1789C16.2897 16.4881 16.0487 16.7533 15.7571 16.9535C15.4656 17.1538 15.1315 17.2835 14.7813 17.3326L14.4607 17.3566Z" fill="#2549D3"/>
</svg>
